HIERARCHY
ROOT Hips
{
	OFFSET -3.958830 18.904000 13.208200
	CHANNELS 6 Xposition Yposition Zposition Zrotation Yrotation Xrotation 
	JOINT LHipJoint
	{
		OFFSET 0.000000 0.000000 0.000000
		CHANNELS 3 Zrotation Yrotation Xrotation
		JOINT LeftUpLeg
		{
			OFFSET 1.800000 -1.400000 0.085000
			CHANNELS 3 Zrotation Yrotation Xrotation
			JOINT LeftLeg
			{
				OFFSET 2.215000 -6.000000 0.000000
				CHANNELS 3 Zrotation Yrotation Xrotation
				JOINT LeftFoot
				{
					OFFSET 2.500000 -6.900000 0.000000
					CHANNELS 3 Zrotation Yrotation Xrotation
					JOINT LeftToeBase
					{
						OFFSET 0.200000 -0.500000 1.950000
						CHANNELS 3 Zrotation Yrotation Xrotation
						End Site
						{
							OFFSET 0.000000 0.000000 0.000000
						}
					}
				}
			}
		}
	}
	JOINT RHipJoint
	{
		OFFSET 0.000000 0.000000 0.000000
		CHANNELS 3 Zrotation Yrotation Xrotation
		JOINT RightUpLeg
		{
			OFFSET -1.800000 -1.400000 0.085000
			CHANNELS 3 Zrotation Yrotation Xrotation
			JOINT RightLeg
			{
				OFFSET -2.215000 -6.000000 0.000000
				CHANNELS 3 Zrotation Yrotation Xrotation
				JOINT RightFoot
				{
					OFFSET -2.500000 -6.900000 0.000000
					CHANNELS 3 Zrotation Yrotation Xrotation
					JOINT RightToeBase
					{
						OFFSET -0.200000 -0.500000 1.950000
						CHANNELS 3 Zrotation Yrotation Xrotation
						End Site
						{
							OFFSET 0.000000 0.000000 0.000000
						}
					}
				}
			}
		}
	}
	JOINT LowerBack
	{
		OFFSET 0.000000 0.000000 0.000000
		CHANNELS 3 Zrotation Yrotation Xrotation
		JOINT Spine
		{
			OFFSET -0.087000 1.940000 -0.288900
			CHANNELS 3 Zrotation Yrotation Xrotation
			JOINT Spine1
			{
				OFFSET 0.000000 1.950000 0.060000
				CHANNELS 3 Zrotation Yrotation Xrotation
				JOINT Neck
				{
					OFFSET 0.000000 0.000000 0.000000
					CHANNELS 3 Zrotation Yrotation Xrotation
					JOINT Neck1
					{
						OFFSET 0.000000 1.600000 0.340000
						CHANNELS 3 Zrotation Yrotation Xrotation
						JOINT Head
						{
							OFFSET 0.000000 1.667000 -0.240000
							CHANNELS 3 Zrotation Yrotation Xrotation
							End Site
							{
								OFFSET 0.000000 0.000000 0.000000
							}
						}
					}
				}
				JOINT LeftShoulder
				{
					OFFSET 0.000000 0.000000 0.000000
					CHANNELS 3 Zrotation Yrotation Xrotation
					JOINT LeftArm
					{
						OFFSET 2.700000 1.550000 -0.730000
						CHANNELS 3 Zrotation Yrotation Xrotation
						JOINT LeftForeArm
						{
							OFFSET 5.450000 0.000000 0.000000
							CHANNELS 3 Zrotation Yrotation Xrotation
							JOINT LeftHand
							{
								OFFSET 3.450000 0.000000 0.000000
								CHANNELS 3 Zrotation Yrotation Xrotation
								JOINT LeftHandIndex1
								{
									OFFSET 0.750000 0.000000 0.000000
									CHANNELS 3 Zrotation Yrotation Xrotation
									End Site
									{
										OFFSET 0.000000 0.000000 0.000000
									}
								}
							}
						}
					}
				}
				JOINT RightShoulder
				{
					OFFSET 0.000000 0.000000 0.000000
					CHANNELS 3 Zrotation Yrotation Xrotation
					JOINT RightArm
					{
						OFFSET -2.700000 1.550000 -0.730000
						CHANNELS 3 Zrotation Yrotation Xrotation
						JOINT RightForeArm
						{
							OFFSET -5.450000 0.000000 0.000000
							CHANNELS 3 Zrotation Yrotation Xrotation
							JOINT RightHand
							{
								OFFSET -3.450000 0.000000 0.000000
								CHANNELS 3 Zrotation Yrotation Xrotation
								JOINT RightHandIndex1
								{
									OFFSET -0.750000 0.000000 0.000000
									CHANNELS 3 Zrotation Yrotation Xrotation
									End Site
									{
										OFFSET 0.000000 0.000000 0.000000
									}
								}
							}
						}
					}
				}
			}
		}
	}
}
MOTION
Frames: 9
Frame Time: 0.016667
-2.530040 17.961890 -2.184310 -9.479331 17.135618 -5.579594 -15.439164 13.375454 2.594402 3.351941 -2.225229 -19.145524 5.282721 7.094137 44.990385 0.307886 7.462694 1.862847 0.234680 0.222380 0.019180 17.995634 -11.289801 2.679544 -2.553955 1.153509 -7.782300 10.495381 -8.357614 25.100186 -0.590877 -5.028801 2.509783 0.168230 0.248250 0.267300 -3.106972 -0.852286 -6.987752 -2.345179 3.420517 9.361093 2.851041 3.458091 11.511935 2.914561 2.133796 -10.271255 3.051928 -1.756473 34.790731 4.097890 -2.740330 -13.102820 -8.876909 -8.390626 6.437486 -48.311236 -5.187913 -4.607629 -36.574092 -50.159474 13.194124 -3.598280 3.433667 0.302930 0.064470 0.138950 0.178880 4.324786 10.407489 4.123826 29.035810 17.731824 -3.694284 18.516457 62.577845 9.475707 2.037527 -1.619901 -0.065290 0.222870 0.055830 0.055820 
-2.555120 17.826910 -2.220260 -10.049550 17.421283 -6.270335 -15.461549 13.403547 2.660251 3.585582 -2.490352 -19.775082 6.174700 6.972954 47.208893 0.358884 7.806766 1.723089 0.274430 0.249760 0.072780 17.971191 -11.212125 2.699502 -2.397572 1.517888 -8.012091 11.026010 -8.983966 27.410364 -0.675478 -5.302111 2.389703 0.179680 0.191370 0.271300 -3.048477 -1.013679 -7.119308 -1.725079 3.236213 10.872805 3.016905 3.366173 11.194177 3.066305 1.850281 -10.277979 2.461612 -1.971475 34.608797 3.620620 -2.722070 -14.780700 -9.833589 -8.943304 6.568358 -46.421753 -4.538022 -4.908298 -38.358734 -51.981979 14.585863 -3.557916 3.454286 0.344970 0.023450 0.174720 0.167410 4.930481 11.313113 4.008558 26.141940 17.272878 -4.724238 14.968696 63.389257 7.883444 2.022403 -1.596086 -0.057510 0.207600 0.036680 0.031720 
-2.610360 17.586340 -2.285060 -11.174488 17.325252 -7.698563 -15.484145 13.447493 2.797248 4.066562 -3.018447 -20.825706 7.748101 6.810850 51.747791 0.499946 8.545198 1.459404 0.322020 0.302390 0.121950 17.947132 -11.039054 2.753345 -2.121135 2.384280 -8.940251 11.752589 -10.256787 32.300619 -0.846846 -5.896065 2.171949 0.201890 0.135020 0.252540 -2.985199 -1.342125 -7.401449 -0.186412 2.856728 14.197930 2.444616 3.423611 10.359994 3.350304 1.276204 -10.180154 1.312815 -1.743366 34.220293 4.255520 -2.555580 -17.955840 -11.638186 -9.740373 6.544532 -42.492690 -3.827559 -5.300864 -40.216846 -55.159332 16.676196 -3.501166 3.440952 0.411000 -0.037540 0.226900 0.165720 5.973110 12.682532 3.868108 20.357884 15.714923 -6.396805 11.616000 66.166867 6.586480 2.009332 -1.560308 -0.059920 0.227970 0.009480 0.012210 
-2.659600 17.334440 -2.382870 -12.588689 16.790887 -9.301289 -15.496018 13.470944 2.916909 4.526551 -3.532383 -21.923063 9.859472 6.296043 56.531031 0.692270 9.319068 1.196046 0.324730 0.301930 0.138620 17.937618 -10.777236 2.911982 -2.076257 3.745851 -10.437893 13.670805 -12.289589 37.664058 -1.075530 -6.785190 1.861958 0.182020 0.089060 0.258880 -2.946886 -1.704233 -7.764891 2.128971 2.366754 18.045620 1.702797 3.596075 9.102149 3.835847 0.625780 -10.382249 -0.019521 -1.834991 34.553616 3.878450 -2.717890 -19.552030 -14.219898 -11.251627 6.811818 -39.100722 -2.751230 -6.074668 -39.645871 -57.840205 17.275446 -3.471315 3.428768 0.448760 -0.076730 0.267100 0.151030 7.335347 14.975328 3.988847 14.356245 13.681958 -8.527180 4.014012 68.179860 2.565683 1.995445 -1.486190 -0.044100 0.215100 0.007450 0.003090 
-2.714140 17.112270 -2.452050 -12.898828 15.623633 -10.395719 -15.521897 13.388976 3.032841 4.951216 -3.965606 -22.966227 10.204764 6.880746 60.889693 0.896373 10.103773 0.938957 0.356600 0.350760 0.158260 17.939173 -10.490354 3.032274 -2.747714 5.047186 -11.586251 15.655489 -14.515518 42.420849 -1.329238 -7.748305 1.544452 0.194830 0.053780 0.264110 -2.866547 -1.989664 -8.007546 2.581240 2.140070 20.861308 1.423541 3.741754 8.102827 4.024216 0.255468 -10.238142 -0.624596 -1.308416 34.455124 4.024240 -2.304440 -21.039610 -16.050183 -11.963123 6.908162 -36.273450 -1.506195 -6.835291 -36.228787 -59.463401 15.965991 -3.435932 3.430457 0.462350 -0.103820 0.303210 0.154620 8.666863 16.393276 3.636663 11.034252 13.633481 -9.866138 -4.056598 69.530319 -2.150923 1.975393 -1.407280 -0.018980 0.206370 -0.013750 0.006480 
-2.726530 16.954130 -2.491910 -12.633085 14.340317 -10.922970 -15.489435 13.174177 3.122271 4.996220 -4.396711 -23.532678 9.723656 7.936487 64.445906 1.077803 10.812433 0.741485 0.359150 0.360390 0.151510 17.997621 -10.326063 3.145104 -4.249129 6.057014 -12.872222 17.879260 -16.803315 45.791257 -1.532724 -8.624190 1.276857 0.202740 0.069100 0.257640 -2.960472 -1.881781 -8.185176 3.273254 1.608228 22.050409 0.311300 3.364772 7.629177 4.183747 0.108882 -10.124243 -0.607397 -0.388929 34.456550 3.969570 -1.786950 -20.617170 -17.588764 -12.597885 7.151320 -35.338371 0.040133 -7.913948 -27.173623 -59.367020 10.980474 -3.414153 3.388924 0.453200 -0.094170 0.296530 0.167910 9.823169 17.364132 3.278710 12.072498 15.237619 -11.088916 -15.246898 71.315821 -9.534692 1.899345 -1.258883 -0.023940 0.217870 -0.021040 0.013560 
-2.725110 16.908860 -2.469190 -11.876238 12.048114 -11.119185 -15.437195 13.110018 3.060334 4.805937 -3.908521 -22.451780 8.541551 9.133005 64.530414 1.185349 10.955356 0.718229 0.306210 0.309080 0.103490 18.034666 -10.408010 3.205800 -5.262806 6.607801 -13.184258 18.006951 -17.364467 47.441125 -1.572620 -8.960902 1.184186 0.157590 0.095500 0.259140 -3.053234 -1.584817 -8.220977 3.240879 1.888057 20.832204 -0.258536 3.400393 8.040529 4.064800 -0.052998 -10.644605 -0.761863 0.792897 37.046379 3.802040 -1.312040 -17.299140 -18.665142 -13.635957 7.678506 -37.473882 0.626402 -8.869003 -14.340675 -54.912583 3.865265 -3.401902 3.306178 0.405810 -0.068000 0.271080 0.165560 11.245526 18.726565 3.907400 17.336104 16.594222 -12.177620 -26.444530 72.140350 -17.408180 1.813202 -1.031054 -0.008310 0.193360 -0.004030 0.036050 
-2.713120 16.974060 -2.441410 -11.228837 11.121864 -10.831993 -15.403484 13.129429 3.021251 4.570401 -3.714536 -21.138401 7.318914 9.491224 62.287814 1.129714 10.639388 0.818760 0.254460 0.241750 0.096900 18.029515 -10.622604 3.147719 -5.964947 6.040796 -12.489411 17.555840 -16.712452 45.844896 -1.468925 -8.668980 1.273191 0.111350 0.102250 0.265980 -3.089239 -1.305280 -8.172727 2.776323 2.180626 18.756561 -0.656659 3.287153 8.345997 3.962826 1.245296 -11.248017 1.608584 0.463665 39.704606 2.897300 -0.659840 -14.608350 -21.760178 -15.941094 8.082438 -38.031769 -0.777003 -8.183339 -0.129357 -44.972031 -1.840212 -3.434531 3.141845 0.391060 -0.042050 0.258710 0.139670 14.645186 20.018936 5.179662 24.940518 17.485978 -12.960763 -35.390262 70.859257 -23.418018 1.730057 -0.773786 -0.010820 0.172270 0.018490 0.024770 
-2.665430 17.142770 -2.443070 -10.608825 11.391858 -9.968614 -15.326010 13.187402 3.068315 3.619117 -3.972456 -20.254108 6.361530 8.990346 58.727934 1.021200 9.994689 1.040355 0.171670 0.147060 0.040470 18.051781 -10.865772 3.049701 -6.430348 4.824152 -11.660668 16.993847 -15.360139 41.877787 -1.247734 -7.978920 1.497673 0.051280 0.151350 0.264240 -3.265951 -1.156614 -8.164116 3.790581 1.697916 16.634215 -2.075173 2.682481 8.651699 3.621204 1.610865 -12.299834 2.005557 0.831803 42.002917 2.757010 -0.224840 -10.272430 -24.943324 -18.952511 8.663086 -37.360357 -3.252377 -5.565052 9.301308 -30.422323 -3.338971 -3.546525 3.051862 0.344070 0.002690 0.213600 0.128620 18.385466 22.091320 7.080378 31.871768 17.044484 -13.892748 -40.990334 68.723472 -27.008294 1.705648 -0.636302 -0.019110 0.153280 0.052000 0.038840 
